<svg width="433" height="434" xmlns="http://www.w3.org/2000/svg" xmlns:xlink="http://www.w3.org/1999/xlink" xml:space="preserve" overflow="hidden"><g transform="translate(-243 -51)"><path d="M5853.06 6771.4C5734.35 6771.43 5638.18 6867.71 5638.22 6986.38 5638.25 7053.51 5669.59 7116.74 5723 7157.38L5732.23 7140.52 5753.96 7100.76 5756.64 7041.95 5759.32 6983.1 5775.72 6962.59 5792.64 6937.7 5792.64 6918.62 5790.97 6902.35 5796.86 6911.86 5799.54 6929.41 5801.07 6943.16 5786.65 6964.93 5778.96 6976.38 5772.45 6988.15 5772.83 7033.66 5774.43 7081.5 5781.92 7079.97 5791.49 7070.92 5792.4 7058.14 5795.36 7037.84 5803.75 7023.74 5812.11 7009.63 5830.46 6994.1 5848.81 6978.54 5866.57 6961.9 5884.32 6945.25 5896.06 6917.47 5907.83 6889.65 5912.11 6855.1 5912.46 6843.13 5915.7 6833.83 5924.47 6827.14 5918.9 6843.58 5919.32 6860.95 5916.64 6900.68 5905.95 6936.72 5897.03 6959.42 5858.42 6998.7 5823.15 7040.97 5820.05 7061.45 5820.01 7068.13 5831.95 7066.67 5844.63 7057.27 5857.96 7045.6 5871.16 7037.52 5881.33 7021.3 5888.75 7019.52 5890.31 7019.84 5891.95 7020.85 5889.93 7021.82 5885.23 7024.08 5882.58 7029.31 5876.66 7043.31 5861.62 7055.28 5835.72 7078.54 5819.38 7084.39 5805.28 7099.82 5784.84 7115.14 5774.33 7130.11 5761.79 7150.79 5752.88 7176.42C5783.8 7192.72 5818.24 7201.25 5853.19 7201.25 5971.86 7201.21 6068.07 7105.01 6068.07 6986.31L6068.07 6986.2C6068 6867.5 5971.76 6771.33 5853.06 6771.4Z" fill="#96B78C" transform="matrix(1 0 0 1.00231 -5395.21 -6736.02)"/></g></svg>