<?xml version="1.0" encoding="UTF-8" standalone="no"?>
<!-- Created with Inkscape (http://www.inkscape.org/) -->

<svg
   width="72.184044mm"
   height="31.523331mm"
   viewBox="0 0 72.184044 31.523331"
   version="1.1"
   id="svg1"
   xml:space="preserve"
   xmlns="http://www.w3.org/2000/svg"
   xmlns:svg="http://www.w3.org/2000/svg"><defs
     id="defs1" /><g
     id="layer1"
     transform="translate(-13.223101,-11.528415)"><path
       id="path1-8"
       style="fill:#96b78c;fill-opacity:1;stroke:none;stroke-width:1.67146;stroke-dasharray:none;stroke-opacity:1"
       d="m 28.978272,11.529887 a 15.761637,15.761637 0 0 0 -15.75517,15.765707 15.761637,15.761637 0 0 0 6.21761,12.53948 l 0.67695,-1.23639 1.59398,-2.91483 0.19657,-4.31353 0.19658,-4.31485 1.20083,-1.50556 1.24166,-1.82361 0.001,-1.40134 -0.12393,-1.190227 0.43161,0.69542 0.19658,1.287857 0.11205,1.00809 -1.0569,1.59664 -0.56476,0.84053 -0.47767,0.86166 0.0285,3.33705 0.11728,3.50998 0.54762,-0.11348 0.70202,-0.66504 0.066,-0.93687 0.21889,-1.48842 0.61362,-1.03317 0.61356,-1.03321 1.34593,-1.14005 1.34456,-1.14142 1.30239,-1.22053 1.30239,-1.21925 0.86161,-2.04003 0.86166,-2.039977 0.31386,-2.53218 0.0285,-0.87747 0.23884,-0.6835 0.64262,-0.48955 -0.40787,1.20472 0.0285,1.27599 -0.19657,2.91351 -0.78379,2.640387 -0.6545,1.6652 -2.83302,2.88056 -2.58631,3.09954 -0.22554,1.50168 -0.003,0.49082 0.87614,-0.10826 0.92766,-0.68745 0.97776,-0.85639 0.96854,-0.59115 0.74685,-1.19152 0.54362,-0.12915 0.11348,0.0237 0.12108,0.0736 -0.14767,0.0712 -0.34567,0.16476 -0.1942,0.38414 -0.43399,1.02661 -1.10182,0.8788 -1.9001,1.70485 -1.19945,0.42876 -1.03188,1.13084 -1.50029,1.12556 -0.77064,1.09779 -0.91968,1.51483 -0.6545,1.88034 a 15.761637,15.761637 0 0 0 7.35637,1.81966 15.761637,15.761637 0 0 0 15.75911,-15.76177 v -0.009 A 15.761637,15.761637 0 0 0 28.975412,11.528417 Z" /><text
       xml:space="preserve"
       style="font-size:17.6389px;line-height:0;letter-spacing:0px;writing-mode:lr-tb;direction:ltr;fill:#eff6ef;fill-opacity:1;stroke-width:3.05119"
       x="47.364334"
       y="33.053432"
       id="text1"
       transform="scale(1.0332423,0.9678272)"><tspan
         id="tspan1"
         style="font-style:normal;font-variant:normal;font-weight:300;font-stretch:normal;font-size:17.6389px;font-family:'Bookman Old Style';-inkscape-font-specification:'Bookman Old Style Light';letter-spacing:0px;fill:#eff6ef;fill-opacity:1;stroke-width:3.0512"
         x="47.364334"
         y="33.053432">twig</tspan></text></g></svg>
